<svg xmlns="http://www.w3.org/2000/svg" xmlns:xlink="http://www.w3.org/1999/xlink" width="176" height="40" viewBox="0 0 176 40">
  <defs>
    <clipPath id="clip-path">
      <rect id="Rectangle_149304" data-name="Rectangle 149304" width="165.971" height="32.364" fill="#292929"/>
    </clipPath>
    <clipPath id="clip-logo">
      <rect width="176" height="40"/>
    </clipPath>
  </defs>
  <g id="logo" clip-path="url(#clip-logo)">
    <g id="Group_164663" data-name="Group 164663" transform="translate(5.029 4)" clip-path="url(#clip-path)">
      <path id="Path_20933" data-name="Path 20933" d="M21.17,19.638,17.449,17.83c-1.965-.958-3.925-1.92-5.894-2.867a.6.6,0,0,1-.417-.614c.012-3.54.006-7.082.009-10.624,0-.123.023-.245.039-.425a3.472,3.472,0,0,1,.4.12q4.575,2.015,9.148,4.033a.686.686,0,0,1,.5.714c-.017,3.62-.009,7.24-.011,10.862,0,.167-.026.333-.047.609" transform="translate(5.578 1.652)" fill="#292929"/>
      <path id="Path_20934" data-name="Path 20934" d="M3.358,19.57c-.014-.228-.033-.4-.033-.564,0-3.59.008-7.178-.012-10.768a.78.78,0,0,1,.563-.821c2.973-1.313,5.936-2.644,8.9-3.968.53-.236.579-.206.581.371,0,3.464,0,6.926.008,10.389a.7.7,0,0,1-.458.74c-3.1,1.505-6.18,3.036-9.268,4.558a1.761,1.761,0,0,1-.284.065" transform="translate(1.659 1.657)" fill="#292929"/>
      <path id="Path_20935" data-name="Path 20935" d="M14.98,29.839c-.552-.264-1-.47-1.435-.687C9.253,27.011,4.965,24.86.663,22.737A.982.982,0,0,1,0,21.724C.023,16.4.014,11.069.014,5.741v-.7c.249.09.416.137.57.207.949.437,1.887.894,2.844,1.312a.754.754,0,0,1,.516.806c-.014,4.079,0,8.157-.018,12.236a.848.848,0,0,0,.554.879c3.311,1.661,6.605,3.354,9.914,5.019a.941.941,0,0,1,.639.992c-.05.9-.012,1.8-.015,2.7,0,.168-.02.338-.039.642" transform="translate(0 2.525)" fill="#292929"/>
      <path id="Path_20936" data-name="Path 20936" d="M11.183,29.8c-.017-.257-.035-.408-.036-.561,0-.98.018-1.96-.011-2.94a.709.709,0,0,1,.473-.738c1.9-.941,3.784-1.9,5.673-2.85,1.52-.767,3.033-1.549,4.564-2.3a.706.706,0,0,0,.455-.743c-.014-4.094,0-8.189-.02-12.281a.829.829,0,0,1,.563-.878c.89-.4,1.757-.851,2.635-1.276.128-.062.267-.1.465-.173.012.231.029.4.029.567q0,8.134.009,16.264a.713.713,0,0,1-.462.74c-2.712,1.343-5.415,2.706-8.118,4.064q-2.661,1.335-5.319,2.676c-.263.132-.531.252-.9.426" transform="translate(5.577 2.534)" fill="#292929"/>
      <path id="Path_20937" data-name="Path 20937" d="M23.568,16.8c-.6.288-1.12.542-1.639.782q-3.969,1.833-7.945,3.652a.749.749,0,0,1-.554.027q-4.421-2.148-8.825-4.33a1.777,1.777,0,0,1-.243-.2c.681-.368,1.31-.713,1.947-1.048,2.221-1.171,4.453-2.326,6.662-3.516a1.257,1.257,0,0,1,1.328-.048c2.967,1.5,5.955,2.961,8.934,4.438a3.093,3.093,0,0,1,.335.24" transform="translate(2.185 5.986)" fill="#292929"/>
      <path id="Path_20938" data-name="Path 20938" d="M30.221,6.44c-1.355.608-2.557,1.157-3.775,1.676a.837.837,0,0,1-.563-.081Q20.9,5.773,15.936,3.486a1.166,1.166,0,0,0-1.085,0Q9.9,5.789,4.923,8.058a.677.677,0,0,1-.468.065C3.3,7.6,2.149,7.051.9,6.463a3.731,3.731,0,0,1,.423-.276Q8.176,3.111,15.035.06a1.26,1.26,0,0,1,.885.05c2.847,1.228,5.681,2.484,8.519,3.73q2.573,1.13,5.146,2.257c.176.077.336.18.635.344" transform="translate(0.452 0)" fill="#292929"/>
      <path id="Path_20939" data-name="Path 20939" d="M64.375,10.923c0-1.691.018-3.384-.012-5.076-.007-.476.2-.66.654-.7l.1-.008c1.508-.122,1.628-.02,1.628,1.381,0,.426.017.854,0,1.28-.021.4.128.569.576.557.989-.024,1.98,0,2.969-.012.363-.006.576.1.6.461.011.173.05.345.05.516,0,.783-.1.872-.909.873-.905,0-1.81.012-2.715-.006-.4-.008-.576.093-.572.5.02,1.645,0,3.29.015,4.933a4.074,4.074,0,0,0,.113.891,1.654,1.654,0,0,0,1.807,1.28,15.057,15.057,0,0,0,1.8-.125c.573-.059.654-.014.713.507.123,1.082.09,1.184-1.043,1.319a8.13,8.13,0,0,1-3.483-.171,2.9,2.9,0,0,1-2.178-2.584c-.1-.971-.087-1.954-.1-2.933s0-1.929,0-2.894" transform="translate(32.235 2.557)" fill="#292929"/>
      <path id="Path_20940" data-name="Path 20940" d="M95.2,11.052c0-1.739.018-3.477-.012-5.217-.009-.476.189-.68.647-.692.432-.011.867.011,1.3.038.326.021.45.2.444.515-.015.726.011,1.454-.01,2.181-.009.353.126.473.5.467,1.006-.017,2.013.008,3.018-.011.452-.009.627.152.627.581,0,1.472.05,1.258-1.307,1.268-.788.006-1.576.011-2.364,0-.344-.006-.471.117-.468.447.014,1.754-.009,3.509.017,5.263.02,1.3.693,1.908,2.079,1.9a15.892,15.892,0,0,0,1.745-.15c.36-.042.545.072.558.42.054,1.372.141,1.322-1.268,1.456a11.079,11.079,0,0,1-2.6-.072,3.054,3.054,0,0,1-2.873-3.081c-.053-1.769-.012-3.54-.012-5.311H95.2" transform="translate(47.673 2.574)" fill="#292929"/>
      <path id="Path_20941" data-name="Path 20941" d="M60.722,17.774c0-.158.009-.317,0-.474-.023-.311.143-.39.45-.423a8.964,8.964,0,0,0,1.618-.281,1.237,1.237,0,0,0,.955-1.3A1.133,1.133,0,0,0,62.7,14.186c-1.205-.261-2.437-.414-3.638-.686a10.377,10.377,0,0,1-2.257-.747,2.489,2.489,0,0,1-1.325-2.709,2.624,2.624,0,0,1,1.706-2.283,7.147,7.147,0,0,1,2.927-.578c.3,0,.405.1.419.384.059,1.157.066,1.15-1.133,1.366a3.546,3.546,0,0,0-.806.243,1.088,1.088,0,0,0-.713,1.145,1.029,1.029,0,0,0,.875.925c.689.185,1.408.27,2.107.425a35.82,35.82,0,0,1,3.494.822,2.711,2.711,0,0,1,1.771,3.285c-.24,1.573-1.439,2.233-2.9,2.589-.611.149-1.255.171-1.882.263-.485.069-.692-.11-.626-.572a2.234,2.234,0,0,0,0-.284" transform="translate(27.775 3.597)" fill="#292929"/>
      <path id="Path_20942" data-name="Path 20942" d="M27.2,18.214a4.633,4.633,0,0,1-1.378-1.5,7.5,7.5,0,0,1-.976-3.351,10.006,10.006,0,0,1,.533-4.487A5.915,5.915,0,0,1,29.727,5.2a14.936,14.936,0,0,1,5.379-.317c.332.036.429.164.414.453a8.638,8.638,0,0,0,0,1.043c.029.383-.155.423-.513.413a24.252,24.252,0,0,0-3.4-.014,4.265,4.265,0,0,0-4.129,4.076c-.15,2.014-.093,4.043-.126,6.066-.006.407,0,.813,0,1.22l-.153.069" transform="translate(12.419 2.394)" fill="#292929"/>
      <path id="Path_20943" data-name="Path 20943" d="M71.579,13.78c0-1.375-.01-2.75.008-4.123,0-.368-.119-.537-.516-.494a.825.825,0,0,1-.251,0c-.308-.063-.852-.095-.875-.213a5.53,5.53,0,0,1,0-1.477c0-.06.248-.143.383-.144.87-.014,1.741,0,2.613-.009.341,0,.537.131.579.458.02.156.051.312.081.467.066.363.206.4.525.174a12.088,12.088,0,0,1,1.265-.84,5.4,5.4,0,0,1,2.991-.357c.125.009.312.231.335.374a7.066,7.066,0,0,1,.021.994c0,.407-.186.558-.627.512a4.42,4.42,0,0,0-2.674.432,2.839,2.839,0,0,0-1.417,2.62c-.056,1.863-.026,3.728-.033,5.592,0,.689-.081.773-.8.78-1.98.02-1.576.038-1.6-1.474-.021-1.09,0-2.181,0-3.27" transform="translate(35.005 3.592)" fill="#292929"/>
      <path id="Path_20944" data-name="Path 20944" d="M47.91,9.995c0-.7-.02-1.264.017-1.819.006-.116.2-.264.338-.32a6.767,6.767,0,0,1,1.775-.609,11.253,11.253,0,0,1,2.9.071,3.233,3.233,0,0,1,3.017,3.272c.09,1.768.048,3.54.062,5.31,0,.726,0,.726.756.735.666.008.744.08.768.71.042,1.069.023,1.088-1.093,1.088-.284,0-.569,0-.854,0-1.475-.011-1.975-.488-1.981-1.9-.006-1.66,0-3.32-.014-4.98a3.312,3.312,0,0,0-.086-.8,2.216,2.216,0,0,0-2.356-1.8A4.084,4.084,0,0,0,47.91,9.995" transform="translate(23.992 3.599)" fill="#292929"/>
      <path id="Path_20945" data-name="Path 20945" d="M84.959,15.915c0,.533.021,1.067-.015,1.6a.554.554,0,0,1-.306.387,9.824,9.824,0,0,1-1.872.624,7.018,7.018,0,0,1-3.227-.2,3.311,3.311,0,0,1-2.457-3.252c-.119-2.445-.072-4.9-.1-7.345,0-.293.149-.443.455-.447.437-.006.872,0,1.307-.014.479-.018.65.194.647.63q-.016,2.915,0,5.832a6.884,6.884,0,0,0,.125,1.36,1.968,1.968,0,0,0,2.061,1.66,3.913,3.913,0,0,0,3.255-.9l.123.072" transform="translate(38.556 3.636)" fill="#292929"/>
      <path id="Path_20946" data-name="Path 20946" d="M88.7,7.816c.017.258.035.423.035.588,0,1.343-.024,2.688.014,4.031a8.229,8.229,0,0,0,.266,1.821,3.227,3.227,0,0,0,2.789,2.22,10.535,10.535,0,0,0,4.4-.461c.737-.206.8-.182.92.512.152.907.06,1.057-.887,1.325a11.567,11.567,0,0,1-5.7.237,4.736,4.736,0,0,1-3.956-3.713,6.79,6.79,0,0,1,.443-4.767,8.577,8.577,0,0,1,1.246-1.522,2.1,2.1,0,0,1,.44-.272" transform="translate(43.241 3.914)" fill="#292929"/>
      <path id="Path_20947" data-name="Path 20947" d="M44.906,15.233c0,.861.02,1.583-.018,2.3-.006.126-.225.3-.384.354a9.158,9.158,0,0,1-4.1.392,5.934,5.934,0,0,1-3.213-1.211,4.7,4.7,0,0,1-1.714-3.276,7.489,7.489,0,0,1,.363-3.787,4.7,4.7,0,0,1,1.531-2.013,3.331,3.331,0,0,1,.4-.218c.02.285.045.5.047.714.015,1.643-.015,3.287.05,4.927a3.071,3.071,0,0,0,1.591,2.745c1.208.674,4.028.726,5.11-.645a2.93,2.93,0,0,1,.342-.285" transform="translate(17.724 3.895)" fill="#292929"/>
      <path id="Path_20948" data-name="Path 20948" d="M44.483,17.745c-.021-.306-.044-.489-.045-.671-.018-1.613,0-3.227-.057-4.837a3.225,3.225,0,0,0-1.436-2.789c-1.334-.864-4.16-.807-5.239.5a2.671,2.671,0,0,1-.276.239,2.542,2.542,0,0,1-.077-.4c-.009-.38,0-.758,0-1.138,0-.973-.012-1.024,1-1.232a9.277,9.277,0,0,1,5.565.341,4.273,4.273,0,0,1,2.488,2.6,7.249,7.249,0,0,1-.186,5.507,4.1,4.1,0,0,1-1.733,1.879" transform="translate(18.705 3.582)" fill="#292929"/>
      <path id="Path_20949" data-name="Path 20949" d="M48.95,12.868c0,1.643-.017,3.287.011,4.929.007.482-.213.662-.674.669-.351.006-.7.012-1.055,0-.6-.02-.7-.111-.7-.678V9.778c0-.662,0-.662-.726-.663-1,0-1.073-.078-1.039-1.025.03-.789.063-.819.9-.819s1.675,0,2.512,0c.657,0,.765.105.767.714q0,2.443,0,4.882" transform="translate(22.419 3.64)" fill="#292929"/>
      <path id="Path_20950" data-name="Path 20950" d="M82.667,12.821c0-1.628.012-3.258-.008-4.887-.006-.453.135-.654.65-.671,1.72-.057,1.72-.072,1.72,1.537,0,2.4.011,4.807-.01,7.211,0,.443.113.623.612.606.281-.009.791.1.812.222a5.3,5.3,0,0,1-.017,1.436c-.006.054-.285.117-.44.12-.854.012-1.709.006-2.565.006-.7,0-.753-.05-.753-.695q0-2.443,0-4.887" transform="translate(41.398 3.629)" fill="#292929"/>
      <path id="Path_20951" data-name="Path 20951" d="M26.879,12c.123.084.189.108.221.155,1.129,1.645,2.877,2.035,4.785,2.115a17.267,17.267,0,0,0,5.193-.683c.591-.158.7-.087.729.462.092,1.618.072,1.4-1.355,1.717a16.112,16.112,0,0,1-8.363-.129c-.032-.011-.065-.017-.1-.027-1.157-.4-1.157-.4-1.157-1.541,0-.522,0-1.043,0-1.564,0-.147.024-.294.042-.5" transform="translate(13.44 6.009)" fill="#292929"/>
      <path id="Path_20952" data-name="Path 20952" d="M88.3,10.358c0-.866-.011-1.646.015-2.425,0-.089.189-.213.314-.249a9.331,9.331,0,0,1,1.787-.447,12.553,12.553,0,0,1,5.11.465,1.193,1.193,0,0,1,.434,1.772.849.849,0,0,1-.642.018,11.408,11.408,0,0,0-3.9-.543,3.771,3.771,0,0,0-2.831,1.222,1.841,1.841,0,0,1-.285.188" transform="translate(44.222 3.591)" fill="#292929"/>
      <path id="Path_20953" data-name="Path 20953" d="M34.8,7.587c0,.537-.011,1.075,0,1.612.009.344-.153.5-.506.494-.5,0-1.006,0-1.507,0-.344,0-.524-.162-.522-.5q0-1.945,0-3.887c0-.291.119-.408.429-.345.474.1.953.176,1.426.275a.734.734,0,0,1,.684.839c-.032.5-.008,1.01-.008,1.516" transform="translate(16.162 2.474)" fill="#292929"/>
      <path id="Path_20954" data-name="Path 20954" d="M60.262,14.69c-.023.974.185.971-1.015.873-1.109-.09-2.208-.3-3.311-.465a.584.584,0,0,1-.539-.63c-.072-1.255.1-1.372,1.37-1.091.891.2,1.8.3,2.707.444.785.122.786.117.786.869" transform="translate(27.738 6.636)" fill="#292929"/>
      <path id="Path_20955" data-name="Path 20955" d="M60.188,7.129c.979.188,1.956.38,2.936.561a.554.554,0,0,1,.506.645c0,.047,0,.095,0,.141-.012,1-.107,1.054-1.109.867-.98-.182-1.978-.287-2.952-.492-.765-.162-.252-.782-.369-1.178-.081-.269.029-.5.419-.468.182.015.368,0,.551,0,.006-.027.012-.053.02-.08" transform="translate(29.618 3.57)" fill="#292929"/>
      <path id="Path_20956" data-name="Path 20956" d="M111.515,19.823a1.292,1.292,0,0,1-1.613-.69q-3.163-5.4-6.425-10.752a3.229,3.229,0,0,1-.558-2.053c.039-.393.007-.792.007-1.177.97-.185,1.132-.117,1.574.626,2.151,3.6,4.289,7.207,6.463,10.794a3.212,3.212,0,0,1,.56,2.052,11.837,11.837,0,0,0-.008,1.2" transform="translate(51.538 2.536)" fill="#292929"/>
      <path id="Path_20957" data-name="Path 20957" d="M103.213,5.069c.012.234.03.41.03.587q0,6.747,0,13.494c0,.719,0,.719-.762.752-1.516.063-1.516.063-1.516-1.336V5.889c0-.749.071-.816.845-.819.456,0,.913,0,1.4,0" transform="translate(50.566 2.538)" fill="#292929"/>
      <path id="Path_20958" data-name="Path 20958" d="M109.089,19.887V5.841c0-.761,0-.761.788-.785,1.46-.045,1.46-.045,1.46,1.333V19.069c0,.791-.032.816-.89.818h-1.358" transform="translate(54.635 2.526)" fill="#292929"/>
    </g>
  </g>
</svg>
